<?xml version="1.0" encoding="UTF-8"?>
<svg version="1.1" xmlns="http://www.w3.org/2000/svg" width="32" height="32">
<path d="M0 0 C9.24 0 18.48 0 28 0 C28 7.26 28 14.52 28 22 C18.76 22 9.52 22 0 22 C0 14.74 0 7.48 0 0 Z M3 5 C3 9.62 3 14.24 3 19 C10.26 19 17.52 19 25 19 C25 14.38 25 9.76 25 5 C17.74 5 10.48 5 3 5 Z " fill="#FB7F18" transform="translate(2,5)"/>
<path d="M0 0 C0.66 0 1.32 0 2 0 C1.67 2.97 1.34 5.94 1 9 C0.01 9.33 -0.98 9.66 -2 10 C-1.125 2.25 -1.125 2.25 0 0 Z " fill="#FB8217" transform="translate(16,12)"/>
<path d="M0 0 C2.475 0.99 2.475 0.99 5 2 C5 2.99 5 3.98 5 5 C3.35 5.66 1.7 6.32 0 7 C0 4.69 0 2.38 0 0 Z " fill="#FB7F18" transform="translate(19,14)"/>
<path d="M0 0 C0 2.31 0 4.62 0 7 C-2.475 6.01 -2.475 6.01 -5 5 C-4.625 3.0625 -4.625 3.0625 -4 1 C-2 0 -2 0 0 0 Z " fill="#FB7F18" transform="translate(13,14)"/>
</svg>
